<?xml version="1.0" encoding="UTF-8" standalone="no"?>
<svg width="500px" height="516px" viewBox="0 0 500 516" version="1.1" xmlns="http://www.w3.org/2000/svg" xmlns:xlink="http://www.w3.org/1999/xlink" xmlns:sketch="http://www.bohemiancoding.com/sketch/ns">
    <!-- Generator: Sketch 3.2.2 (9983) - http://www.bohemiancoding.com/sketch -->
    <title>Oval 4</title>
    <desc>Created with Sketch.</desc>
    <defs>
        <radialGradient cx="50%" cy="50%" fx="50%" fy="50%" r="39.7367158%" id="radialGradient-1">
            <stop stop-color="#000000" stop-opacity="0.5" offset="0%"></stop>
            <stop stop-color="#FFFFFF" stop-opacity="0.5" offset="100%"></stop>
        </radialGradient>
        <path d="M263.000173,17.1338824 L263.000175,16.0492508 C345.638254,20.2825433 417.676025,64.6440574 460.008689,130.028995 L460.008689,130.028995 L395.897016,167.043886 C366.804106,123.225418 318.498033,93.2679275 263,89.1926145 L263.000003,87.8661775 C277.564906,82.7182215 288,68.8277341 288,52.5 C288,36.1723292 277.564987,22.2818862 263.000173,17.1338824 L263.000173,17.1338824 Z M238,17.1338213 L238,16 L238,16 C154.765965,19.9335041 82.185556,64.5702985 39.7196536,130.449504 L39.7196536,130.449504 L103.8265,167.461609 C133.063143,123.152372 181.906033,92.9207924 238,89.1220391 L238,87.8661787 C223.435095,82.7182236 213,68.8277353 213,52.5 C213,36.1722647 223.435095,22.2817764 238,17.1338213 L238,17.1338213 Z M472.528976,151.667917 C490.0896,185.862816 500,224.63259 500,265.717062 C500,306.976339 490.005088,345.901178 472.304413,380.202431 L472.304413,380.202431 L406.462618,342.188653 C418.322885,318.586956 425,291.931771 425,263.717062 C425,236.912573 418.973671,211.515608 408.201975,188.807129 L472.528976,151.667917 L472.528976,151.667917 Z M27.4664785,379.757357 C9.90869044,345.564619 0,306.79799 0,265.717062 C0,224.810933 9.82454719,186.19945 27.2427698,152.113485 L27.2427698,152.113485 L91.5836656,189.260719 C80.94641,211.853598 75,237.090901 75,263.717062 C75,291.753446 81.5929795,318.249957 93.3131227,341.740779 L27.4664785,379.757357 L27.4664785,379.757357 Z M39.9859028,401.396777 C82.4885268,467.049947 154.939659,511.508829 238,515.434125 L238,438.312086 C183.302921,434.607931 135.500275,405.771054 106.046995,363.256388 L39.9859028,401.396777 L39.9859028,401.396777 Z M459.741589,401.816795 C417.373406,466.976217 345.464707,511.160472 263.000175,515.384874 L263,515.384883 L263,438.24151 C317.102867,434.268647 364.370826,405.698553 393.666679,363.668428 L459.741589,401.816795 L459.741589,401.816795 Z M245,5.0093855 C245,2.24277828 247.244195,0 250,0 C252.761424,0 255,2.231557 255,5.0093855 L255,39.9906145 C255,42.7572217 252.755805,45 250,45 C247.238576,45 245,42.768443 245,39.9906145 L245,5.0093855 Z" id="path-2"></path>
        <filter x="-50%" y="-50%" width="200%" height="200%" filterUnits="objectBoundingBox" id="filter-3">
            <feGaussianBlur stdDeviation="1" in="SourceGraphic" result="blur"></feGaussianBlur>
        </filter>
    </defs>
    <g id="Page-4" stroke="none" stroke-width="1" fill="none" fill-rule="evenodd" sketch:type="MSPage">
        <g id="Oval-4">
            <use fill="#3E4478" sketch:type="MSShapeGroup" xlink:href="#path-2"></use>
            <use fill="url(#radialGradient-1)" xlink:href="#path-2"></use>
        </g>
        <circle id="Oval-1" stroke="#3E4478" stroke-width="8" filter="url(#filter-3)" sketch:type="MSShapeGroup" cx="250" cy="266" r="125"></circle>
        <path d="M265.659294,248.201287 L301.092755,248.201287 L301.092755,236.000485 L255.562206,236.000485 L255.562206,242.609253 L255.562206,294.971029 L265.659294,294.971029 L265.659294,248.201287 Z M242.097282,248.727773 C222.847365,252.637369 208.195779,271.833923 208.001946,295 L198.001317,295 C198.00044,294.858205 198,294.71629 198,294.574257 C198,262.224588 220.802865,236 248.931624,236 C248.954419,236 248.977211,236.000017 249,236.000052 L249,236.000048 L249,236.006515 L249.06071,236 L252.014995,236 L252.014995,295 L242.097282,295 L242.097282,248.727773 Z" id="Oval-2" fill="#3E4478" sketch:type="MSShapeGroup"></path>
    </g>
</svg>